<svg xmlns="http://www.w3.org/2000/svg" viewBox="0 0 512 512"><path d="m 0,256 a 256,256 0 1 1 512,0 256,256 0 0 1 -512,0 M 240,34.464 c -21.44,6.528 -42.72,26.24 -60.384,59.36 A 256,256 0 0 0 164.64,128 H 240 Z M 130.88,128 A 297.6,297.6 0 0 1 151.36,78.752 224,224 0 0 1 170.464,48.896 224.96,224.96 0 0 0 72.16,128 Z m -18.624,112 c 0.96,-28.064 4.416,-54.976 9.984,-80 H 53.568 a 224,224 0 0 0 -20.992,80 z m 42.848,-80 a 400,400 0 0 0 -10.816,80 H 240 V 160 Z M 272,160 v 80 h 95.68 A 400,400 0 0 0 356.896,160 Z M 144.32,272 a 400,400 0 0 0 10.784,80 H 240 V 272 Z M 272,272 v 80 h 84.896 c 5.984,-24.48 9.792,-51.456 10.816,-80 z M 164.64,384 q 6.656,18.56 14.976,34.176 c 17.664,33.12 38.976,52.8 60.384,59.36 V 384 Z m 5.824,79.104 A 224,224 0 0 1 151.36,433.248 297.6,297.6 0 0 1 130.88,384 H 72.16 a 224,224 0 0 0 98.304,79.104 M 122.24,352 a 438.4,438.4 0 0 1 -9.984,-80 h -79.68 c 1.984,28.48 9.312,55.456 20.992,80 z M 341.536,463.104 A 224,224 0 0 0 439.84,384 h -58.72 a 297.6,297.6 0 0 1 -20.48,49.248 224,224 0 0 1 -19.104,29.856 M 272,384 v 93.536 c 21.44,-6.528 42.72,-26.24 60.384,-59.36 Q 340.704,402.592 347.36,384 Z m 117.76,-32 h 68.672 c 11.68,-24.544 19.008,-51.52 20.992,-80 h -79.68 a 438.4,438.4 0 0 1 -9.984,80 M 479.424,240 A 224,224 0 0 0 458.432,160 H 389.76 c 5.568,25.024 9.024,51.936 9.984,80 z M 360.64,78.752 c 7.904,14.848 14.784,31.36 20.48,49.248 h 58.72 A 224,224 0 0 0 341.536,48.896 c 6.976,9.088 13.376,19.136 19.104,29.856 M 347.36,128 A 256,256 0 0 0 332.384,93.824 C 314.72,60.704 293.44,41.024 272,34.464 V 128 Z"/></svg>
