<?xml version="1.0" encoding="UTF-8" standalone="no"?>
<!-- Created with Inkscape (http://www.inkscape.org/) -->

<svg
   version="1.1"
   id="svg1"
   width="768"
   height="664"
   viewBox="0 0 768 664"
   sodipodi:docname="logo.svg"
   inkscape:version="1.3 (0e150ed6c4, 2023-07-21)"
   xmlns:inkscape="http://www.inkscape.org/namespaces/inkscape"
   xmlns:sodipodi="http://sodipodi.sourceforge.net/DTD/sodipodi-0.dtd"
   xmlns="http://www.w3.org/2000/svg"
   xmlns:svg="http://www.w3.org/2000/svg">
  <defs
     id="defs1" />
  <sodipodi:namedview
     id="namedview1"
     pagecolor="#ffffff"
     bordercolor="#666666"
     borderopacity="1.0"
     inkscape:showpageshadow="2"
     inkscape:pageopacity="0.0"
     inkscape:pagecheckerboard="0"
     inkscape:deskcolor="#d1d1d1"
     inkscape:zoom="0.72439759"
     inkscape:cx="347.87526"
     inkscape:cy="332"
     inkscape:window-width="1280"
     inkscape:window-height="659"
     inkscape:window-x="0"
     inkscape:window-y="0"
     inkscape:window-maximized="1"
     inkscape:current-layer="g1" />
  <g
     inkscape:groupmode="layer"
     inkscape:label="Image"
     id="g1">
    <path
       style="fill:#000000"
       d="M 41,589.5 V 542 H 391 741 V 589.5 637 H 391 41 Z m 117.10078,27.3619 c 5.15588,-1.72626 9.67329,-5.51428 12.12807,-10.16983 l 2.21039,-4.19207 0.37985,-21.25 0.37984,-21.25 h -6.54333 -6.54334 l -0.30613,21.08847 -0.30613,21.08846 -2.80576,2.41154 c -3.12363,2.68473 -10.58364,3.33031 -15.03692,1.30126 C 137.50609,603.9983 137,601.17985 137,579.95295 V 560 h -6.55413 -6.55412 l 0.30412,21.75 0.30413,21.75 2.06862,3.94331 c 2.39756,4.57035 5.45667,7.09369 10.9892,9.06457 4.80693,1.71239 15.91416,1.9038 20.54296,0.35402 z m 130.24301,-2.21749 c 11.11035,-6.51109 11.63943,-21.66187 0.97399,-27.89083 -1.74649,-1.02 -7.36996,-2.99184 -12.4966,-4.38186 -10.9639,-2.97272 -13.68892,-4.99677 -12.25167,-9.10013 1.21001,-3.4546 6.57371,-5.083 12.18049,-3.69796 2.8465,0.70318 4.09465,1.7094 5.18047,4.17637 l 1.43046,3.25 H 289.18047 295 v -2.54966 c 0,-8.36094 -9.83239,-15.45741 -21.39922,-15.44476 -13.17671,0.0144 -21.60614,6.72561 -21.59704,17.19476 0.005,5.31248 2.7926,10.12079 7.20204,12.42105 1.81182,0.94516 7.56922,2.97374 12.79422,4.50794 12.25497,3.59839 15.28874,6.82263 11.18643,11.88876 -1.29858,1.60368 -3.22344,2.37514 -6.77854,2.71674 -7.02071,0.6746 -11.83749,-1.51541 -13.51079,-6.14286 L 261.59822,598 H 255.79911 250 l 0.0164,2.75 c 0.0208,3.47397 3.69796,9.97971 7.04137,12.45775 4.8266,3.57735 10.03041,4.8394 18.53429,4.49504 6.64313,-0.26901 8.92645,-0.81664 12.75168,-3.05838 z m 359.75699,2.21749 c 5.15588,-1.72626 9.67329,-5.51428 12.12807,-10.16983 l 2.21039,-4.19207 0.37985,-21.25 0.37984,-21.25 h -6.54333 -6.54334 l -0.30613,21.08847 -0.30613,21.08846 -2.80576,2.41154 c -3.12363,2.68473 -10.58364,3.33031 -15.03692,1.30126 C 627.50609,603.9983 627,601.17985 627,579.95295 V 560 h -6.55413 -6.55412 l 0.30412,21.75 0.30413,21.75 2.06862,3.94331 c 2.39756,4.57035 5.45667,7.09369 10.9892,9.06457 4.80693,1.71239 15.91416,1.9038 20.54296,0.35402 z m 66.24301,-2.21749 c 11.11035,-6.51109 11.63943,-21.66187 0.97399,-27.89083 -1.74649,-1.02 -7.36996,-2.99184 -12.4966,-4.38186 -10.9639,-2.97272 -13.68892,-4.99677 -12.25167,-9.10013 1.21001,-3.4546 6.57371,-5.083 12.18049,-3.69796 2.8465,0.70318 4.09465,1.7094 5.18047,4.17637 l 1.43046,3.25 H 715.18047 721 v -2.54966 c 0,-8.36094 -9.83239,-15.45741 -21.39922,-15.44476 -13.17671,0.0144 -21.60614,6.72561 -21.59704,17.19476 0.005,5.31248 2.7926,10.12079 7.20204,12.42105 1.81182,0.94516 7.56922,2.97374 12.79422,4.50794 12.25497,3.59839 15.28874,6.82263 11.18643,11.88876 -1.29858,1.60368 -3.22344,2.37514 -6.77854,2.71674 -7.02071,0.6746 -11.83749,-1.51541 -13.51079,-6.14286 L 687.59822,598 H 681.79911 676 l 0.0164,2.75 c 0.0208,3.47397 3.69796,9.97971 7.04137,12.45775 4.8266,3.57735 10.03041,4.8394 18.53429,4.49504 6.64313,-0.26901 8.92645,-0.81664 12.75168,-3.05838 z M 74,607.69617 v -9.30384 l 3.48502,-3.37781 c 1.91676,-1.8578 3.652147,-3.18357 3.856413,-2.94617 0.204267,0.23741 4.044894,5.94415 8.534726,12.68165 L 98.03949,617 h 7.96779 7.96779 L 101.94186,599.95861 89.908645,582.91722 100.42627,571.70861 110.9439,560.5 l -7.49464,-0.29247 -7.494651,-0.29248 -7.807694,8.29248 C 83.852683,572.76839 78.926087,578.075 77.198924,580 l -3.140297,3.5 -0.02931,-11.75 L 74,560 H 67.5 61 V 588.5 617 H 67.5 74 Z M 200.22793,598.33472 200.5,579.66944 211.87413,598.33472 223.24825,617 H 229.62413 236 V 588.5 560 h -5.97793 -5.97794 L 223.77207,578.44212 223.5,596.88425 212.17798,578.44212 200.85596,560 H 194.42798 188 v 28.5 28.5 h 5.97793 5.97794 z M 336,594.04044 v -22.95956 l 8.25,-0.29044 8.25,-0.29044 0.30226,-5.25 0.30226,-5.25 H 329.55226 306 v 5.5 5.5 h 8.5 8.5 v 23 23 h 6.5 6.5 z m 40.22793,4.29428 L 376.5,579.66944 387.87413,598.33472 399.24825,617 H 405.62413 412 V 588.5 560 h -5.97793 -5.97794 L 399.77207,578.44212 399.5,596.88425 388.17798,578.44212 376.85596,560 H 370.42798 364 v 28.5 28.5 h 5.97793 5.97794 z M 472.80226,611.75 472.5,606.5 457.25,606.22395 442,605.94791 V 599.47395 593 h 13.5 13.5 v -5 -5 H 455.5 442 v -6 -6 h 15 15 V 565.5 560 H 450.5 429 v 28.5 28.5 h 22.05226 22.05226 z M 499,606 v -11 h 7.86514 c 9.89451,0 12.73789,1.78582 13.57773,8.52764 0.30642,2.4598 0.8097,6.49736 1.1184,8.97236 l 0.56128,4.5 h 6.54571 c 5.82894,0 6.47053,-0.19163 5.85905,-1.75 -0.37766,-0.9625 -1.03333,-5.12936 -1.45703,-9.25968 -0.80185,-7.81649 -2.89458,-13.23298 -5.72465,-14.81677 -1.44151,-0.80671 -1.24155,-1.29567 1.55389,-3.7997 7.83929,-7.0221 5.24185,-21.90987 -4.5353,-25.99503 C 521.98561,560.38497 516.16918,560 503.53212,560 H 486 v 28.5 28.5 h 6.5 6.5 z m 0,-27.9005 V 570 h 8.92742 8.92742 l 2.07258,2.63486 c 2.58893,3.29129 2.65254,7.42711 0.16157,10.50436 -1.70783,2.10977 -2.87742,2.39794 -11,2.71028 L 499,586.199 Z M 562,605 v -12 h 11 11 v 12 12 h 6.5 6.5 V 588.5 560 h -6.5 -6.5 v 11 11 h -11 -11 v -11 -11 h -6.5 -6.5 v 28.5 28.5 h 6.5 6.5 z m 95.5,-94.4975 c -14.84798,-2.79354 -25.2845,-8.24414 -35.57833,-18.5812 -6.05061,-6.07602 -8.50308,-9.50623 -12.16564,-17.01573 -5.88592,-12.06814 -7.78102,-19.66796 -8.45475,-33.90557 -1.59993,-33.81053 12.32708,-60.83127 37.84591,-73.42747 11.08101,-5.46962 19.99021,-7.53152 32.64497,-7.55517 39.0467,-0.073 66.09621,24.60121 71.23841,64.98264 3.36026,26.38789 -4.94666,52.58229 -21.73632,68.54165 -15.83266,15.04969 -39.91752,21.45309 -63.79425,16.96085 z m 27.0685,-26.98683 c 19.3722,-5.83081 30.73733,-31.31081 26.2402,-58.82911 -2.76147,-16.8976 -10.25884,-28.82417 -21.6112,-34.37836 -7.26781,-3.55581 -21.21834,-4.45845 -28.99346,-1.87597 -11.5889,3.84921 -20.06379,13.06621 -24.29081,26.41784 -3.05611,9.65313 -3.70963,26.46399 -1.42878,36.75327 3.65659,16.49544 12.88266,27.90573 25.83973,31.95717 5.69765,1.78155 18.25351,1.75833 24.24432,-0.0448 z M 87.666667,508.33333 C 87.3,507.96667 87,481.19167 87,448.83333 V 390 H 65.5 44 V 376.5 363 h 59.5 59.5 v 13.5 13.5 h -22 -22 v 59.5 59.5 h -15.33333 c -8.433337,0 -15.633337,-0.3 -16.000003,-0.66667 z M 185,436.02539 V 363 l 40.25,0.006 c 22.1375,0.003 42.89918,0.43963 46.13706,0.96988 22.6869,3.7153 36.97519,23.24208 33.6773,46.02433 -1.95774,13.52438 -8.09665,22.83696 -18.42281,27.94699 l -3.85845,1.9094 5.04644,2.55723 c 8.67117,4.39402 13.65751,13.20581 15.18214,26.82971 0.50819,4.54117 1.37413,13.33437 1.9243,19.54045 0.63317,7.14224 1.72544,12.92304 2.97594,15.75 L 309.88754,509 h -15.84595 -15.84594 l -1.14426,-3.25 c -0.62935,-1.7875 -1.80114,-9.55 -2.60399,-17.25 -1.97397,-18.93205 -3.05244,-23.65469 -6.4834,-28.391 -5.18092,-7.15206 -6.76079,-7.56699 -30.1983,-7.93123 L 217.03139,451.85554 216.7657,480.17777 216.5,508.5 l -15.75,0.27539 -15.75,0.2754 z m 75.6713,-8.17284 c 9.69548,-2.44135 14.86264,-12.58934 12.47184,-24.49399 -1.37382,-6.84074 -3.47268,-9.95154 -8.54589,-12.66617 L 260.5,388.5 238.75,388.18008 217,387.86016 V 408.43008 429 h 19.55718 c 11.39931,0 21.45801,-0.47863 24.11412,-1.14745 z M 322,508.13059 c 0,-0.47818 5.4286,-15.21568 12.06356,-32.75 6.63495,-17.53433 18.60469,-49.20559 26.59941,-70.38059 7.99472,-21.175 14.96287,-39.29854 15.48476,-40.27454 l 0.9489,-1.77454 16.10662,0.27454 16.10662,0.27454 6.95418,18.5 C 438.03856,439.92606 463,507.27397 463,508.09723 c 0,0.57529 -6.43346,0.84353 -16.25,0.67754 L 430.5,508.5 l -4.77584,-14 c -2.62671,-7.7 -5.20456,-15.0125 -5.72856,-16.25 L 419.04288,476 H 392.12549 365.2081 l -4.16076,11.75 c -2.28842,6.4625 -4.91587,13.8875 -5.83877,16.5 L 353.53056,509 H 337.76528 C 329.09438,509 322,508.60876 322,508.13059 Z M 402.43618,427.25 c -4.66407,-13.6125 -8.7255,-25.425 -9.0254,-26.25 -0.47229,-1.29923 -0.66708,-1.2831 -1.45524,0.12049 C 390.97107,402.87366 374,450.38862 374,451.39172 374,451.72627 382.30617,452 392.45815,452 h 18.45815 z m 79.02369,80.5 c -0.26255,-0.6875 -0.36093,-33.425 -0.21862,-72.75 L 481.5,363.5 h 51 51 l 0.27903,13.25 0.27902,13.25 h -35.5532 -35.55321 l 0.27418,16.75 0.27418,16.75 30.25,0.26466 30.25,0.26467 V 436.51466 449 H 543.5 513 v 30 30 h -15.53138 c -11.50385,0 -15.65518,-0.32414 -16.00875,-1.25 z M 606,306 v -23 h 14.5 14.5 v 23 23 H 620.5 606 Z M 676.24143,234.75 676,140 h -2.37736 c -2.24612,0 -17.80215,-12.67646 -133.32165,-108.642563 l -23.199,-19.272229 -31.301,29.595997 c -17.21554,16.277799 -33.71743,31.896127 -36.67087,34.707396 -2.95343,2.81127 -5.20343,4.637098 -5,4.057396 0.37805,-1.077273 71.48619,-68.749339 72.70054,-69.187514 0.51648,-0.186362 52.85,42.788477 87.10006,71.524159 44.8099,37.595358 67.90193,56.182448 69.81928,56.198508 L 676,139 V 104 69 l -36.91821,0 c -20.30502,0 -37.63002,-0.273145 -38.5,-0.606989 -1.21028,-0.464426 -1.57405,-2.049789 -1.54883,-6.75 L 599.06592,55.5 611.51464,38.75 623.96336,22 l 14.96819,0 14.96819,0 13.05013,16.972518 L 680,55.945035 v 5.920494 c 0,4.34017 -0.40039,6.074136 -1.5,6.496097 -1.31464,0.504476 -1.5,9.723804 -1.5,74.606994 V 217 h 32 c 17.6,0 32.00023,0.3375 32.0005,0.75 2.8e-4,0.4125 -14.39593,0.6253 -31.99159,0.47288 l -31.99209,-0.27711 -0.26698,55.77711 c -0.17468,36.49507 -0.35044,23.02221 -0.50841,-38.97288 z M 64,304.5 V 290 H 72.5 81 V 304.5 319 H 72.5 64 Z m 48,0 V 290 h 8.5 8.5 v 14.5 14.5 h -8.5 -8.5 z m 48,0 V 290 h 8.5 8.5 v 14.5 14.5 h -8.5 -8.5 z m 50,0 V 290 h 8.5 8.5 v 14.5 14.5 h -8.5 -8.5 z m 47,0 V 290 h 8.5 8.5 v 14.5 14.5 h -8.5 -8.5 z m 51,0 V 290 h 8.5 8.5 v 14.5 14.5 h -8.5 -8.5 z m 47,0 V 290 h 8.5 8.5 v 14.5 14.5 h -8.5 -8.5 z m 54,0 V 290 h 8.5 8.5 v 14.5 14.5 h -8.5 -8.5 z m 51,0 V 290 h 8.5 8.5 v 14.5 14.5 h -8.5 -8.5 z m 51,0 V 290 h 8.5 8.5 v 14.5 14.5 h -8.5 -8.5 z m 54,0 V 290 h 8.5 8.5 v 14.5 14.5 h -8.5 -8.5 z m 122,0 V 290 h 9 9 v 14.5 14.5 h -9 -9 z m 25,0 V 290 h 9 9 v 14.5 14.5 h -9 -9 z M 646,272 v -13 h 3.5 3.5 v 13 13 H 649.5 646 Z M 619,255.56336 V 242 h 3.52903 3.52902 l -0.27902,13.25 -0.27903,13.25 -3.25,0.31336 -3.25,0.31336 z M 687,254 v -15 h 9 9 v 15 15 h -9 -9 z m 25,0 v -15 h 9 9 v 15 15 h -9 -9 z M 64,249.5 V 235 H 72.5 81 V 249.5 264 H 72.5 64 Z m 48,0 V 235 h 8.5 8.5 v 14.5 14.5 h -8.5 -8.5 z m 48,0 V 235 h 8.5 8.5 v 14.5 14.5 h -8.5 -8.5 z m 50,0 V 235 h 8.5 8.5 v 14.5 14.5 h -8.5 -8.5 z m 47,0 V 235 h 8.5 8.5 v 14.5 14.5 h -8.5 -8.5 z m 51,0 V 235 h 8.5 8.5 v 14.5 14.5 h -8.5 -8.5 z m 47,0 V 235 h 8.5 8.5 v 14.5 14.5 h -8.5 -8.5 z m 54,0 V 235 h 8.5 8.5 v 14.5 14.5 h -8.5 -8.5 z m 51,0 V 235 h 8.5 8.5 v 14.5 14.5 h -8.5 -8.5 z m 51,0 V 235 h 8.5 8.5 v 14.5 14.5 h -8.5 -8.5 z m 54,0 V 235 h 8.5 8.5 v 14.5 14.5 h -8.5 -8.5 z m 81,-32.06336 v -13.56336 l 3.25,0.31336 3.25,0.31336 0.27903,13.25 0.27902,13.25 H 649.52903 646 Z M 460,199.5 V 185 h 8.5 8.5 v 14.5 14.5 h -8.5 -8.5 z m 51,0 V 185 h 8.5 8.5 v 14.5 14.5 h -8.5 -8.5 z m 54,0 V 185 h 8.5 8.5 v 14.5 14.5 h -8.5 -8.5 z m 54,0.93664 v -13.56336 l 3.25,0.31336 3.25,0.31336 0.27903,13.25 0.27902,13.25 H 622.52903 619 Z M 69,196 v -15 h 4 4 v 15 15 h -4 -4 z m 48,0 v -15 h 3.5 3.5 v 15 15 h -3.5 -3.5 z m 47,0 v -15 h 4 4 v 15 15 h -4 -4 z m 51,0 v -15 h 3.5 3.5 v 15 15 h -3.5 -3.5 z m 47,0 v -15 h 3.5 3.5 v 15 15 h -3.5 -3.5 z m 51,0 v -15 h 3.5 3.5 v 15 15 h -3.5 -3.5 z m 47,0 v -15 h 3.5 3.5 v 15 15 h -3.5 -3.5 z m 54,0 v -15 h 3.5 3.5 v 15 15 H 417.5 414 Z M 646,164.5 V 151 h 3.5 3.5 v 13.5 13.5 h -3.5 -3.5 z m -141.59178,1.25 c -3.79325,-5.6375 -7.68026,-11.4875 -8.63782,-13 l -1.741,-2.75 h 25.54316 25.54316 l -8.80786,12.97326 -8.80786,12.97327 -8.09749,0.0267 L 511.30502,176 Z M 41,136.5 V 112 H 242.5 444 V 136.5 161 H 242.5 41 Z m 578,10.93664 v -13.56336 l 3.25,0.31336 3.25,0.31336 0.27903,13.25 0.27902,13.25 H 622.52903 619 Z M 511,124.5 V 110 h 8.5 8.5 v 14.5 14.5 h -8.5 -8.5 z m -40,-1 V 110 h 3.5 3.5 v 13.5 13.5 h -3.5 -3.5 z m 30,0 V 110 h 3.5 3.5 v 13.5 13.5 h -3.5 -3.5 z m 30,0 V 110 h 3 3 v 13.5 13.5 h -3 -3 z m 30,0 V 110 h 3.5 3.5 V 123.5 137 H 564.5 561 Z M 595,92 v -8 h 3.5 3.5 v 8 8 H 598.5 595 Z M 488,76.5 V 63 h 3 3 V 76.5 90 h -3 -3 z m 54,0 V 63 h 3 3 V 76.5 90 h -3 -3 z M 514,34 v -8 h 3.5 3.5 v 8 8 h -3.5 -3.5 z"
       id="path1" />
  </g>
</svg>
